<svg width="464" height="114" viewBox="0 0 464 114" fill="none" xmlns="http://www.w3.org/2000/svg">
<path d="M139 59.24V76.14H164.74V59.24C164.592 57.2906 165.173 55.3556 166.37 53.81C166.909 53.2129 167.573 52.7414 168.314 52.4287C169.055 52.1159 169.856 51.9696 170.66 52C171.469 51.9731 172.275 52.1188 173.023 52.4275C173.771 52.7361 174.445 53.2006 175 53.79C176.107 54.9834 176.663 56.8 176.67 59.24V105.71C176.67 108.16 176.11 109.98 174.98 111.19C174.429 111.78 173.759 112.247 173.015 112.559C172.27 112.871 171.467 113.022 170.66 113C169.851 113.034 169.044 112.888 168.298 112.571C167.553 112.255 166.887 111.776 166.35 111.17C165.168 109.606 164.596 107.665 164.74 105.71V85.88H139V105.71C139 108.16 138.44 109.98 137.31 111.19C136.75 111.791 136.067 112.264 135.308 112.576C134.548 112.888 133.731 113.033 132.91 113C132.102 113.034 131.297 112.887 130.554 112.57C129.81 112.254 129.146 111.775 128.61 111.17C127.428 109.606 126.856 107.665 127 105.71V59.24C126.851 57.2968 127.416 55.3659 128.59 53.81C129.13 53.2062 129.798 52.7304 130.546 52.4173C131.293 52.1042 132.101 51.9616 132.91 52C133.724 51.9694 134.535 52.1134 135.289 52.4221C136.042 52.7308 136.721 53.1972 137.28 53.79C138.393 54.9834 138.967 56.8 139 59.24Z" fill="#6D4BBF"/>
<path d="M216.52 106.8C214.172 108.688 211.583 110.251 208.82 111.45C206.166 112.514 203.328 113.041 200.47 113C197.897 113.055 195.35 112.482 193.05 111.33C191.015 110.311 189.307 108.741 188.12 106.8C186.974 104.936 186.374 102.788 186.39 100.6C186.326 97.7703 187.345 95.023 189.24 92.92C191.335 90.6969 194.085 89.2009 197.09 88.65C197.79 88.49 199.52 88.13 202.28 87.57C205 87 207.41 86.49 209.38 86C211.35 85.51 213.49 85 215.8 84.29C215.67 81.39 215.08 79.29 214.05 77.91C213.02 76.53 210.88 75.91 207.63 75.91C205.466 75.7832 203.304 76.1847 201.33 77.08C199.85 77.9262 198.605 79.1294 197.71 80.58C197.052 81.6423 196.342 82.6703 195.58 83.66C195.208 83.9581 194.78 84.1774 194.321 84.3046C193.862 84.4318 193.382 84.4643 192.91 84.4C191.731 84.4204 190.588 83.9955 189.71 83.21C189.277 82.8407 188.931 82.3802 188.698 81.8615C188.465 81.3427 188.349 80.7787 188.36 80.21C188.386 78.1609 189.089 76.178 190.36 74.57C192.047 72.5194 194.259 70.9643 196.76 70.07C200.219 68.7892 203.892 68.1849 207.58 68.29C212.41 68.29 216.21 68.87 218.97 70C221.549 70.979 223.647 72.9226 224.82 75.42C226.08 78.5314 226.663 81.8757 226.53 85.23C226.53 87.81 226.53 90 226.53 91.79C226.53 93.58 226.53 95.59 226.47 97.79C226.478 99.9812 226.816 102.159 227.47 104.25C227.958 105.65 228.293 107.098 228.47 108.57C228.456 109.152 228.318 109.725 228.065 110.25C227.811 110.774 227.448 111.238 227 111.61C226.004 112.514 224.704 113.01 223.36 113C222.073 112.935 220.865 112.363 220 111.41C218.658 110.02 217.489 108.472 216.52 106.8ZM215.8 90.91C213.509 91.6841 211.171 92.3087 208.8 92.78C205.726 93.4467 203.6 93.93 202.42 94.23C201.161 94.5559 199.992 95.1608 199 96C198.462 96.4621 198.037 97.0412 197.758 97.693C197.479 98.3448 197.353 99.0519 197.39 99.76C197.383 100.563 197.55 101.357 197.88 102.089C198.21 102.821 198.694 103.473 199.3 104C200.673 105.216 202.468 105.844 204.3 105.75C206.385 105.767 208.443 105.28 210.3 104.33C211.963 103.515 213.353 102.233 214.3 100.64C215.286 98.98 215.783 96.2467 215.79 92.44L215.8 90.91Z" fill="#6D4BBF"/>
<path d="M274.26 91.47V106.08C274.401 107.945 273.842 109.796 272.69 111.27C272.167 111.842 271.526 112.293 270.811 112.592C270.096 112.891 269.325 113.03 268.55 113C267.79 113.026 267.033 112.884 266.333 112.585C265.633 112.286 265.008 111.837 264.5 111.27C263.382 109.782 262.849 107.935 263 106.08V88.57C263.029 86.4229 262.932 84.2759 262.71 82.14C262.593 80.7624 262.063 79.4522 261.19 78.38C260.676 77.8508 260.05 77.4439 259.358 77.1895C258.665 76.935 257.925 76.8395 257.19 76.91C253.604 76.91 251.237 78.1434 250.09 80.61C248.944 83.0767 248.374 86.6167 248.38 91.23V106.08C248.513 107.935 247.962 109.774 246.83 111.25C246.323 111.823 245.694 112.278 244.991 112.58C244.287 112.883 243.526 113.026 242.76 113C241.992 113.023 241.229 112.878 240.522 112.576C239.816 112.274 239.184 111.821 238.67 111.25C237.512 109.786 236.945 107.942 237.08 106.08V74.65C236.962 72.9608 237.471 71.2873 238.51 69.95C238.978 69.4196 239.559 69 240.209 68.7216C240.859 68.4431 241.563 68.3128 242.27 68.34C242.968 68.3206 243.662 68.4436 244.31 68.7015C244.958 68.9594 245.547 69.3468 246.04 69.84C246.558 70.3968 246.958 71.052 247.218 71.7666C247.477 72.4813 247.59 73.2408 247.55 74V75C249.217 72.9266 251.298 71.2237 253.66 70C255.914 68.9037 258.394 68.3522 260.9 68.39C263.371 68.3362 265.815 68.9144 268 70.07C270.064 71.2527 271.759 72.9832 272.9 75.07C274.532 73.0058 276.576 71.3032 278.9 70.07C281.069 68.9727 283.47 68.4136 285.9 68.44C288.598 68.3696 291.269 68.9782 293.67 70.21C295.79 71.3375 297.493 73.1143 298.53 75.28C299.47 77.28 299.94 80.39 299.94 84.65V106.08C300.081 107.945 299.522 109.796 298.37 111.27C297.835 111.82 297.196 112.257 296.489 112.556C295.782 112.854 295.022 113.008 294.255 113.008C293.488 113.008 292.728 112.854 292.022 112.556C291.315 112.257 290.675 111.82 290.14 111.27C288.986 109.805 288.422 107.96 288.56 106.1V87.61C288.584 85.7152 288.481 83.8209 288.25 81.94C288.093 80.6031 287.523 79.3483 286.62 78.35C286.093 77.8412 285.464 77.4499 284.774 77.2017C284.085 76.9535 283.351 76.8541 282.62 76.91C281.15 76.9137 279.714 77.3597 278.5 78.19C277.212 79.058 276.177 80.2519 275.5 81.65C274.66 83.5 274.26 86.78 274.26 91.47Z" fill="#6D4BBF"/>
<path d="M346 98.63C346.077 101.391 345.305 104.11 343.79 106.42C342.164 108.688 339.882 110.402 337.25 111.33C333.875 112.524 330.309 113.09 326.73 113C323.263 113.084 319.814 112.468 316.59 111.19C314.146 110.258 311.993 108.695 310.35 106.66C309.108 105.109 308.406 103.196 308.35 101.21C308.342 100.633 308.452 100.059 308.673 99.5262C308.895 98.9929 309.224 98.5109 309.64 98.11C310.066 97.6835 310.576 97.349 311.136 97.1271C311.697 96.9052 312.297 96.8007 312.9 96.82C313.86 96.7529 314.808 97.0572 315.55 97.67C316.26 98.3457 316.854 99.1327 317.31 100C318.272 101.779 319.665 103.288 321.36 104.39C323.325 105.449 325.541 105.95 327.77 105.84C329.685 105.92 331.578 105.407 333.19 104.37C333.794 104.031 334.304 103.545 334.673 102.958C335.041 102.372 335.257 101.702 335.3 101.01C335.357 100.172 335.183 99.3345 334.797 98.5887C334.411 97.8428 333.827 97.2172 333.11 96.78C330.831 95.6006 328.397 94.7488 325.88 94.25C322.728 93.5003 319.641 92.4971 316.65 91.25C314.484 90.3699 312.55 89.001 311 87.25C309.534 85.5031 308.758 83.2797 308.82 81C308.837 78.7651 309.535 76.5885 310.82 74.76C312.278 72.6848 314.292 71.0628 316.63 70.08C319.559 68.839 322.72 68.2422 325.9 68.33C328.484 68.2974 331.061 68.5931 333.57 69.21C335.575 69.6899 337.49 70.4902 339.24 71.58C340.606 72.433 341.783 73.556 342.7 74.88C343.436 75.9176 343.849 77.1488 343.89 78.42C343.911 78.9973 343.809 79.5725 343.59 80.1071C343.371 80.6417 343.04 81.1234 342.62 81.52C341.626 82.3811 340.333 82.8158 339.02 82.73C337.971 82.7523 336.949 82.3975 336.14 81.73C335.137 80.8654 334.228 79.8967 333.43 78.84C332.632 77.7927 331.632 76.9155 330.49 76.26C329.07 75.5406 327.49 75.1964 325.9 75.26C324.166 75.1951 322.451 75.6326 320.96 76.52C320.376 76.8216 319.883 77.2733 319.531 77.8287C319.18 78.3841 318.983 79.0231 318.96 79.68C318.955 80.2353 319.084 80.7836 319.336 81.2782C319.589 81.7727 319.957 82.1988 320.41 82.52C321.589 83.3603 322.91 83.9802 324.31 84.35C325.95 84.83 328.203 85.42 331.07 86.12C333.967 86.7688 336.772 87.7766 339.42 89.12C341.353 90.0775 343.035 91.4749 344.33 93.2C345.453 94.7848 346.039 96.688 346 98.63Z" fill="#6D4BBF"/>
<path d="M355.9 69.3H357.11V62.7C357.11 60.93 357.11 59.54 357.25 58.54C357.311 57.6258 357.578 56.7372 358.03 55.94C358.474 55.1774 359.112 54.5461 359.88 54.11C360.7 53.6375 361.633 53.3956 362.58 53.41C363.999 53.4245 365.357 53.9954 366.36 55C367.097 55.6751 367.598 56.5689 367.79 57.55C368.021 58.9678 368.121 60.4039 368.09 61.84V69.3H372.09C373.374 69.2084 374.645 69.6048 375.65 70.41C376.049 70.7629 376.367 71.1992 376.579 71.6882C376.792 72.1773 376.894 72.707 376.88 73.24C376.932 73.8726 376.793 74.5062 376.481 75.0589C376.169 75.6116 375.698 76.0579 375.13 76.34C373.551 77.0099 371.842 77.3141 370.13 77.23H368.13V97.43C368.109 98.7658 368.169 100.102 368.31 101.43C368.398 102.267 368.748 103.054 369.31 103.68C369.649 103.997 370.052 104.239 370.491 104.389C370.931 104.539 371.397 104.594 371.86 104.55C372.742 104.518 373.619 104.404 374.48 104.21C375.323 104.012 376.184 103.894 377.05 103.86C377.501 103.866 377.947 103.963 378.36 104.147C378.773 104.331 379.143 104.598 379.45 104.93C379.797 105.274 380.071 105.686 380.253 106.14C380.435 106.594 380.523 107.081 380.51 107.57C380.51 109.337 379.546 110.69 377.62 111.63C374.954 112.697 372.086 113.164 369.22 113C365.78 113 363.176 112.423 361.41 111.27C359.68 110.177 358.434 108.463 357.93 106.48C357.312 103.802 357.037 101.057 357.11 98.31V77.23H355.66C354.341 77.3308 353.032 76.9269 352 76.1C351.593 75.7454 351.27 75.3049 351.054 74.8104C350.837 74.3158 350.734 73.7795 350.75 73.24C350.736 72.6994 350.847 72.1628 351.074 71.672C351.301 71.1813 351.639 70.7494 352.06 70.41C353.165 69.5903 354.528 69.1962 355.9 69.3Z" fill="#6D4BBF"/>
<path d="M415.131 93.36H393.641C393.62 95.648 394.137 97.9089 395.151 99.96C395.979 101.708 397.295 103.181 398.939 104.201C400.583 105.22 402.486 105.745 404.421 105.71C405.636 105.726 406.848 105.571 408.021 105.25C409.141 104.927 410.206 104.439 411.181 103.8C412.172 103.168 413.115 102.463 414.001 101.69C414.861 100.943 415.974 99.9234 417.341 98.63C418.032 98.1089 418.887 97.8534 419.751 97.91C420.747 97.8645 421.724 98.1926 422.491 98.83C422.848 99.1624 423.128 99.5696 423.309 100.023C423.491 100.475 423.57 100.963 423.541 101.45C423.46 102.692 423.057 103.892 422.371 104.93C421.45 106.415 420.256 107.711 418.851 108.75C417.059 110.074 415.058 111.088 412.931 111.75C410.29 112.608 407.527 113.03 404.751 113C397.691 113 392.204 111 388.291 107C384.377 103 382.417 97.5434 382.411 90.63C382.39 87.5703 382.88 84.5285 383.861 81.63C384.758 78.9816 386.199 76.5497 388.091 74.49C389.996 72.4695 392.335 70.907 394.931 69.92C397.806 68.8357 400.858 68.2965 403.931 68.33C407.794 68.2019 411.62 69.1247 415.001 71C417.914 72.6369 420.306 75.0634 421.901 78C423.384 80.6869 424.175 83.701 424.201 86.77C424.201 89.5434 423.407 91.3334 421.821 92.14C419.717 93.0637 417.425 93.4815 415.131 93.36ZM393.641 87.13H413.561C413.294 83.37 412.294 80.56 410.561 78.7C409.669 77.767 408.589 77.0346 407.393 76.5518C406.196 76.069 404.91 75.8468 403.621 75.9C402.359 75.8611 401.104 76.0947 399.941 76.5848C398.778 77.0749 397.734 77.81 396.881 78.74C395.081 80.63 394.001 83.42 393.641 87.13Z" fill="#6D4BBF"/>
<path d="M444.34 97.14V106.32C444.47 108.126 443.909 109.913 442.77 111.32C442.26 111.867 441.64 112.298 440.95 112.586C440.26 112.874 439.517 113.012 438.77 112.99C438.036 113.009 437.307 112.867 436.633 112.575C435.96 112.283 435.358 111.848 434.87 111.3C433.753 109.883 433.207 108.099 433.34 106.3V75.74C433.34 70.8 435.123 68.3333 438.69 68.34C439.441 68.2709 440.197 68.3933 440.888 68.6959C441.579 68.9984 442.181 69.4712 442.64 70.07C443.565 71.6116 444.036 73.3827 444 75.18C445.034 73.2621 446.386 71.5342 448 70.07C449.576 68.8477 451.539 68.2336 453.53 68.34C455.879 68.3466 458.189 68.9413 460.25 70.07C462.417 71.2167 463.503 72.7433 463.51 74.65C463.535 75.274 463.426 75.8962 463.19 76.4742C462.953 77.0523 462.595 77.5727 462.14 78C461.352 78.8151 460.273 79.2859 459.14 79.31C458.146 79.1677 457.171 78.9196 456.23 78.57C454.913 78.111 453.534 77.8581 452.14 77.82C450.717 77.7572 449.318 78.2079 448.2 79.09C447.074 80.0971 446.253 81.3998 445.83 82.85C445.207 84.7735 444.814 86.7641 444.66 88.78C444.44 91.05 444.34 93.84 444.34 97.14Z" fill="#6D4BBF"/>
<path d="M140.651 34.4881L134.342 9.36134V36.5891C134.432 37.8056 134.072 39.0127 133.33 39.9805C132.994 40.3532 132.58 40.6476 132.118 40.8429C131.656 41.0382 131.156 41.1297 130.655 41.111C130.165 41.1337 129.677 41.0501 129.222 40.866C128.768 40.6819 128.359 40.4017 128.023 40.0445C127.253 39.0849 126.872 37.8702 126.957 36.6424V5.3833C126.985 3.66268 127.447 2.5002 128.342 1.89585C129.439 1.246 130.703 0.934374 131.976 0.999989H134.46C135.541 0.952 136.622 1.08906 137.657 1.40526C137.988 1.53713 138.291 1.7331 138.547 1.98197C138.803 2.23084 139.007 2.52773 139.149 2.8557C139.59 3.96451 139.947 5.10543 140.214 6.2685L146.001 27.8758L151.735 6.2685C151.998 5.10413 152.354 3.96284 152.801 2.8557C152.944 2.52376 153.153 2.22421 153.415 1.97498C153.677 1.72575 153.986 1.53198 154.325 1.40526C155.359 1.08824 156.441 0.951159 157.522 0.999989H160.037C161.307 0.931353 162.568 1.24326 163.66 1.89585C164.556 2.50375 165.014 3.66624 165.014 5.3833V36.5891C165.089 37.8124 164.709 39.0202 163.948 39.9805C163.607 40.3551 163.187 40.6504 162.72 40.8457C162.252 41.041 161.747 41.1315 161.241 41.111C160.752 41.1231 160.265 41.0282 159.816 40.833C159.367 40.6377 158.966 40.3468 158.641 39.9805C157.876 39.0222 157.496 37.8129 157.575 36.5891V9.36134L151.351 34.4881C150.936 36.1198 150.605 37.3143 150.349 38.0822C150.055 38.8866 149.559 39.6025 148.911 40.1618C148.092 40.8277 147.055 41.1659 146.001 41.111C145.167 41.1236 144.346 40.8979 143.635 40.4605C143.015 40.0765 142.499 39.5454 142.133 38.914C141.758 38.2442 141.474 37.5267 141.291 36.781C141.078 36.1091 140.854 35.3199 140.651 34.4881Z" fill="#6D4BBF"/>
<path d="M200.173 26.18C200.181 28.2432 199.82 30.2911 199.107 32.2271C198.467 34.0076 197.457 35.6323 196.144 36.9943C194.84 38.3325 193.262 39.373 191.519 40.0445C189.59 40.777 187.54 41.1388 185.476 41.111C183.43 41.1454 181.396 40.7833 179.487 40.0445C177.743 39.3539 176.167 38.2995 174.862 36.9516C173.557 35.6037 172.555 33.9931 171.92 32.2271C171.222 30.2925 170.879 28.2475 170.908 26.1907C170.897 24.1065 171.258 22.0371 171.974 20.0797C172.619 18.3029 173.636 16.6847 174.958 15.3337C176.264 14.0053 177.841 12.9756 179.583 12.3156C181.494 11.5835 183.526 11.2215 185.572 11.2491C187.636 11.2189 189.686 11.5808 191.615 12.3156C193.369 12.995 194.957 14.0423 196.272 15.3871C197.575 16.7408 198.577 18.3544 199.213 20.1223C199.887 22.0692 200.212 24.12 200.173 26.18ZM192.808 26.18C192.961 23.6904 192.262 21.223 190.826 19.1838C190.203 18.3713 189.393 17.7206 188.466 17.2863C187.538 16.852 186.521 16.6469 185.498 16.6882C184.154 16.6465 182.829 17.0188 181.704 17.7547C180.564 18.5971 179.7 19.7588 179.221 21.0928C178.602 22.7159 178.301 24.4432 178.336 26.18C178.302 27.8995 178.602 29.6092 179.221 31.2139C179.719 32.5317 180.589 33.6765 181.725 34.5094C182.849 35.2826 184.187 35.6819 185.551 35.6506C186.576 35.6894 187.595 35.481 188.522 35.0429C189.45 34.6049 190.258 33.95 190.88 33.1336C192.288 31.1 192.968 28.6493 192.808 26.18Z" fill="#6D4BBF"/>
<path d="M212.609 15.3124V16.1976C213.731 14.6424 215.188 13.3594 216.872 12.4436C218.523 11.6124 220.353 11.2021 222.201 11.2491C224.011 11.2142 225.8 11.6515 227.391 12.5182C228.877 13.3168 230.072 14.568 230.801 16.091C231.289 16.993 231.61 17.9757 231.749 18.9919C231.906 20.3155 231.977 21.6478 231.963 22.9806V36.6424C232.032 37.8487 231.652 39.0381 230.897 39.9806C230.558 40.3504 230.147 40.6457 229.688 40.8478C229.229 41.0498 228.734 41.1542 228.233 41.1542C227.731 41.1542 227.236 41.0498 226.777 40.8478C226.318 40.6457 225.907 40.3504 225.568 39.9806C224.814 39.0499 224.434 37.8708 224.503 36.6744V24.399C224.586 22.4924 224.221 20.5927 223.437 18.8532C222.765 17.5627 221.423 16.9228 219.419 16.9228C218.181 16.9353 216.977 17.3343 215.977 18.064C214.884 18.8674 214.059 19.9827 213.611 21.2635C213.154 23.2737 212.971 25.3366 213.067 27.3959V36.5998C213.152 37.8113 212.771 39.0094 212.002 39.9486C211.658 40.3074 211.241 40.5882 210.78 40.7722C210.318 40.9562 209.823 41.039 209.327 41.0151C208.834 41.0292 208.344 40.932 207.894 40.7308C207.444 40.5295 207.045 40.2294 206.726 39.8526C205.972 38.9219 205.592 37.7429 205.661 36.5464V15.4191C205.573 14.2986 205.895 13.1844 206.566 12.2836C206.88 11.9324 207.267 11.6547 207.7 11.4703C208.133 11.286 208.601 11.1995 209.071 11.2171C209.684 11.2067 210.289 11.3653 210.819 11.6757C211.361 12.0008 211.795 12.4796 212.066 13.0515C212.432 13.748 212.619 14.5252 212.609 15.3124Z" fill="#6D4BBF"/>
<path d="M259.682 27.9824H245.295C245.297 29.5143 245.662 31.0239 246.36 32.3871C246.919 33.5444 247.797 34.5178 248.89 35.1924C249.983 35.867 251.247 36.2147 252.531 36.1945C253.344 36.2069 254.155 36.1028 254.939 35.8852C255.696 35.6752 256.415 35.3477 257.071 34.9147C257.73 34.492 258.356 34.0215 258.946 33.5069C259.522 33.0092 260.268 32.3266 261.184 31.4592C261.646 31.1104 262.217 30.9399 262.794 30.9793C263.458 30.9458 264.109 31.167 264.616 31.5979C264.855 31.8194 265.042 32.0911 265.164 32.3935C265.285 32.6959 265.339 33.0215 265.319 33.3469C265.269 34.1768 265 34.9787 264.541 35.6719C263.924 36.6658 263.125 37.5342 262.186 38.2315C260.991 39.1231 259.654 39.808 258.232 40.2578C256.466 40.8228 254.62 41.0966 252.765 41.0684C248.055 41.0684 244.392 39.721 241.778 37.0264C239.163 34.3317 237.849 30.6985 237.835 26.1267C237.819 24.0745 238.146 22.0341 238.804 20.0903C239.401 18.3176 240.364 16.6899 241.629 15.3124C242.899 13.9585 244.463 12.9149 246.2 12.2622C248.122 11.5292 250.165 11.1673 252.222 11.1957C254.798 11.1256 257.346 11.7519 259.597 13.0088C261.543 14.11 263.142 15.7358 264.211 17.7014C265.193 19.5014 265.717 21.5162 265.735 23.5671C265.735 25.4122 265.213 26.6173 264.158 27.1612C262.749 27.7768 261.217 28.0579 259.682 27.9824ZM245.295 23.8124H258.605C258.593 21.7539 257.875 19.7622 256.57 18.1706C255.973 17.5495 255.251 17.062 254.452 16.7403C253.653 16.4186 252.795 16.27 251.934 16.3043C251.09 16.2758 250.25 16.4307 249.472 16.7585C248.694 17.0862 247.996 17.5789 247.426 18.2026C246.124 19.7903 245.375 21.7601 245.295 23.8124Z" fill="#6D4BBF"/>
<path d="M277.265 42.0176L277.937 40.3858L268.91 17.6267C268.468 16.7301 268.186 15.7626 268.079 14.7685C268.078 14.1528 268.243 13.5483 268.558 13.0195C268.885 12.4828 269.344 12.0386 269.891 11.729C270.425 11.4176 271.031 11.2521 271.649 11.2491C272.104 11.2264 272.558 11.3112 272.975 11.4964C273.391 11.6817 273.759 11.9623 274.047 12.3156C274.685 13.1883 275.165 14.1666 275.464 15.2058L281.677 33.3363L287.56 16.5176C287.921 15.4274 288.344 14.3591 288.828 13.3181C289.076 12.6641 289.5 12.0918 290.054 11.665C290.602 11.3671 291.222 11.2269 291.844 11.2597C292.408 11.2625 292.96 11.4172 293.443 11.7077C293.942 11.9866 294.352 12.4006 294.626 12.9021C294.9 13.3866 295.044 13.9344 295.042 14.4912C294.967 14.8325 294.85 15.3124 294.69 15.9417C294.53 16.5709 294.338 17.2001 294.104 17.8507L284.512 42.9241C283.879 44.7308 283.068 46.4705 282.093 48.118C281.329 49.347 280.246 50.3458 278.96 51.0082C277.311 51.7498 275.512 52.0932 273.706 52.0107C272.064 52.0891 270.422 51.8538 268.868 51.3174C268.362 51.1172 267.934 50.7611 267.645 50.3009C267.355 49.8407 267.22 49.3002 267.258 48.7578C267.236 48.3962 267.294 48.0342 267.426 47.697C267.559 47.3599 267.763 47.0558 268.026 46.8062C268.67 46.3027 269.48 46.0592 270.296 46.1236C270.685 46.1229 271.072 46.1767 271.447 46.2836C271.844 46.3812 272.252 46.4348 272.661 46.4435C273.342 46.4743 274.021 46.3466 274.644 46.0703C275.184 45.7439 275.629 45.2804 275.933 44.7265C276.445 43.8583 276.89 42.9528 277.265 42.0176Z" fill="#6D4BBF"/>
<path d="M99.6604 74.5285C94.7768 107.828 73.9767 111.167 50.4997 111.237H48.9502C25.4109 111.146 1 106.791 1 68.865C1 62.8049 2.6048 56.6335 4.81139 51.0117C8.0305 43.0771 12.2926 35.6123 17.4837 28.8169C17.4837 28.8169 6.04957 28.7264 11.5972 20.76C19.8356 8.93201 25.487 21.2331 25.487 21.2331C25.487 21.2331 33.0198 13.204 48.0925 13.4197C57.0634 13.5394 65.8109 16.2516 73.2919 21.2331C73.2919 21.2331 74.2327 9.15465 84.8298 15.5487C95.427 21.9428 82.0007 27.154 82.0007 27.154C82.0007 27.154 93.1305 40.6657 97.9103 56.5221C99.6465 62.3944 100.532 68.5797 99.6604 74.5285Z" stroke="#6D4BBF" stroke-width="2" stroke-miterlimit="10"/>
<path d="M42.5791 47.1989C43.9583 47.1989 45.0763 46.0744 45.0763 44.6872C45.0763 43.3001 43.9583 42.1755 42.5791 42.1755C41.2 42.1755 40.082 43.3001 40.082 44.6872C40.082 46.0744 41.2 47.1989 42.5791 47.1989Z" fill="#6D4BBF"/>
<path d="M57.7276 47.1989C59.1067 47.1989 60.2247 46.0744 60.2247 44.6872C60.2247 43.3001 59.1067 42.1755 57.7276 42.1755C56.3485 42.1755 55.2305 43.3001 55.2305 44.6872C55.2305 46.0744 56.3485 47.1989 57.7276 47.1989Z" fill="#6D4BBF"/>
<path d="M96.4577 52.3406C97.9311 60.6898 91.9753 65.0592 78.7634 73.2483L78.3968 73.6657L60.4881 94.6082L60.3913 94.7334L60.2668 94.636L54.5947 89.87L51.4473 87.2331L51.1291 86.9618H50.6173L49.1577 88.1098L47.3731 89.5013L41.6664 94.2881L41.1476 94.7195L40.8294 94.3368L22.9068 73.4013L22.6578 73.123C12.4065 66.8194 3.53862 56.6891 4.80447 50.9908C2.59788 56.6126 1 62.784 1 68.865C1 93.7385 11.9776 104.091 26.1856 108.294C28.5886 108.998 31.0359 109.54 33.511 109.915V107.786C33.511 103.083 33.511 96.9529 33.511 96.7442C33.511 95.6936 33.6493 94.2116 32.3074 94.2116C30.9654 94.2116 31.3113 95.8605 30.9931 96.4102C30.9467 96.5266 30.8678 96.6269 30.7658 96.699C30.6638 96.771 30.5432 96.8117 30.4186 96.8162C30.2941 96.8206 30.1709 96.7885 30.0641 96.7239C29.9574 96.6592 29.8716 96.5647 29.8172 96.4519C29.5751 95.9858 29.6719 92.8896 32.3973 92.8896C35.1227 92.8896 34.8944 95.5127 34.8944 96.8972V110.117C36.2778 110.312 37.7305 110.465 39.1762 110.59C42.4342 110.882 45.7544 111 49.0332 111.028H49.5866C49.7733 111.028 49.9532 111.028 50.133 111.028C54.3941 111.028 58.5997 110.847 62.6601 110.423C66.8544 110.032 70.9956 109.195 75.0143 107.925C87.2509 103.904 96.6998 94.8099 99.6673 74.5285C100.532 68.5797 98.2285 58.2129 96.4577 52.3406ZM50.4997 107.48C50.3492 107.48 50.205 107.42 50.0986 107.313C49.9922 107.206 49.9324 107.061 49.9324 106.909C49.9343 106.759 49.9948 106.616 50.101 106.51C50.2072 106.405 50.3504 106.346 50.4997 106.346C50.5735 106.345 50.6468 106.359 50.7152 106.387C50.7836 106.415 50.8457 106.456 50.8979 106.509C50.9501 106.561 50.9914 106.624 51.0192 106.692C51.047 106.761 51.0609 106.835 51.06 106.909C51.0609 106.984 51.0471 107.058 51.0193 107.127C50.9916 107.196 50.9504 107.259 50.8983 107.312C50.8462 107.365 50.7841 107.407 50.7157 107.436C50.6473 107.465 50.5738 107.48 50.4997 107.48ZM50.4997 103.305C50.4204 103.314 50.3401 103.306 50.2642 103.282C50.1882 103.257 50.1182 103.217 50.0588 103.163C49.9994 103.11 49.9518 103.044 49.9193 102.971C49.8867 102.898 49.8699 102.818 49.8699 102.738C49.8699 102.658 49.8867 102.579 49.9193 102.505C49.9518 102.432 49.9994 102.367 50.0588 102.313C50.1182 102.26 50.1882 102.219 50.2642 102.195C50.3401 102.17 50.4204 102.162 50.4997 102.171C50.6384 102.187 50.7666 102.253 50.8597 102.358C50.9528 102.462 51.0043 102.598 51.0043 102.738C51.0043 102.879 50.9528 103.014 50.8597 103.119C50.7666 103.223 50.6384 103.29 50.4997 103.305ZM55.8398 99.3741C54.9336 99.5133 51.6133 97.2242 51.6133 97.2242L51.4335 97.4817C51.3977 97.5266 51.3525 97.563 51.3011 97.5883C51.2496 97.6136 51.1933 97.627 51.136 97.6278H49.8287C49.7465 97.6253 49.6663 97.6024 49.5951 97.5611C49.5239 97.5198 49.4639 97.4615 49.4206 97.3912L49.3376 97.2451C49.3376 97.2451 45.9965 99.1237 45.0973 98.9845C44.1981 98.8454 43.8384 96.9459 43.8038 95.6588C43.7692 94.3716 44.2465 92.6322 44.7099 92.3469C46.3078 91.359 49.3376 94.3716 49.3376 94.3716L49.5312 94.1698C49.5991 94.1019 49.6803 94.0489 49.7696 94.0142C49.8589 93.9795 49.9544 93.9638 50.05 93.9681H51.0461C51.2104 93.9736 51.3673 94.0377 51.4888 94.149L51.6825 94.3438C51.6825 94.3438 55.1826 92.4026 56.1234 92.5487C57.7558 92.8409 57.4584 99.1445 55.8398 99.395V99.3741Z" fill="#6D4BBF"/>
<path d="M50.112 111.028H49.5586C49.7454 111.035 49.9252 111.028 50.112 111.028Z" fill="#6D4BBF"/>
<path d="M35.3093 12.6613C34.7831 11.085 34.7565 9.38319 35.2332 7.79098C36.0286 5.10534 38.6918 1.64741 44.6129 0.541143C50.5341 -0.565118 60.0314 -0.0780846 63.8636 2.9624C68.0139 6.26031 67.2461 16.1819 67.2461 16.1819C67.2461 16.1819 72.9459 16.4254 72.7107 18.3457C72.2472 22.1515 51.9106 27.6272 42.012 26.7575C32.1135 25.8878 28.4266 23.1743 27.977 20.3217C27.5274 17.469 28.8901 15.9453 30.7439 14.5607C32.1297 13.6375 33.68 12.9925 35.3093 12.6613Z" fill="#6D4BBF"/>
<path d="M49.4213 49.2376H51.5864C51.661 49.2378 51.7341 49.2587 51.7978 49.2979C51.8615 49.3371 51.9133 49.3931 51.9475 49.4598C51.9817 49.5265 51.9971 49.6014 51.992 49.6763C51.9869 49.7512 51.9614 49.8233 51.9184 49.8846L50.95 51.2761C50.9001 51.3465 50.8342 51.4039 50.7578 51.4434C50.6814 51.483 50.5967 51.5037 50.5107 51.5037C50.4248 51.5037 50.3401 51.483 50.2637 51.4434C50.1873 51.4039 50.1214 51.3465 50.0715 51.2761L49.0892 49.8846C49.0435 49.8239 49.0158 49.7514 49.0093 49.6756C49.0028 49.5997 49.0178 49.5235 49.0525 49.4558C49.0872 49.3881 49.1403 49.3317 49.2055 49.2931C49.2708 49.2545 49.3456 49.2352 49.4213 49.2376Z" fill="#6D4BBF"/>
<path d="M50.2777 87.1426L49.1571 88.0819L47.3725 89.4734L41.6658 94.2603C41.3999 94.3695 41.1054 94.3866 40.8288 94.309L22.9062 73.4013L30.2247 77.0819L50.2777 87.1426Z" stroke="#6D4BBF" stroke-miterlimit="10"/>
<path d="M22.9079 73.4013L40.8305 94.3229C40.5616 94.2574 40.3198 94.109 40.1388 93.8985L22.5206 73.3318L22.3477 73.123L22.9079 73.4013Z" fill="white" stroke="#6D4BBF" stroke-miterlimit="10"/>
<path d="M49.1574 88.0819L42.0395 94.0585C41.9291 94.1527 41.8025 94.2258 41.666 94.2742L47.3451 89.4873L49.1574 88.0819Z" fill="white" stroke="#6D4BBF" stroke-miterlimit="10"/>
<path d="M78.4175 73.6727L60.4881 94.6081H60.2667L54.5946 89.8422L51.4473 87.2052L69.9301 77.9099L78.4175 73.6727Z" stroke="#6D4BBF" stroke-miterlimit="10"/>
<path d="M54.5958 89.8423L60.2679 94.6082C59.9299 94.6229 59.5988 94.5086 59.341 94.2882L51.0957 87.3793L51.4485 87.2053L54.5958 89.8423Z" fill="white" stroke="#6D4BBF" stroke-miterlimit="10"/>
<path d="M79.0334 73.3596L78.7567 73.6936L61.2353 94.1351C61.0444 94.3706 60.782 94.5368 60.4883 94.6082L78.4039 73.7005L79.0334 73.3596Z" fill="white" stroke="#6D4BBF" stroke-miterlimit="10"/>
<path d="M40.5806 111.627C40.5806 111.627 37.9106 112.19 34.8601 112.628L33.4767 112.809C30.3155 113.206 27.0921 113.373 26.1651 112.601C24.4843 111.209 24.6849 109.4 26.1651 108.273C26.4634 108.045 26.7887 107.856 27.1336 107.709C29.1188 106.861 31.3946 107.104 33.4836 107.779V109.915L34.867 110.124V108.28C36.363 108.917 37.7945 109.698 39.1419 110.611C40.0342 111.195 40.5806 111.627 40.5806 111.627Z" fill="#6D4BBF"/>
<path d="M61.1172 111.48C61.1172 111.48 73.5267 114.263 75.5188 112.601C77.511 110.938 76.847 108.69 74.5435 107.73C68.9336 105.316 61.1172 111.48 61.1172 111.48Z" fill="#6D4BBF"/>
<path d="M34.8942 96.8972V108.273C34.4446 108.092 34.0019 107.925 33.5107 107.779C33.5107 103.076 33.5107 96.9459 33.5107 96.7372C33.5107 95.6866 33.6491 94.2046 32.3071 94.2046C30.9652 94.2046 31.3111 95.8536 30.9929 96.4032C30.9465 96.5196 30.8675 96.6199 30.7656 96.692C30.6636 96.7641 30.543 96.8048 30.4184 96.8092C30.2939 96.8136 30.1707 96.7816 30.0639 96.7169C29.9572 96.6522 29.8714 96.5578 29.8169 96.445C29.5748 95.9788 29.6717 92.8827 32.3971 92.8827C35.1225 92.8827 34.8942 95.5127 34.8942 96.8972Z" fill="white"/>
<path d="M34.8932 108.273V110.117L33.5098 109.908V107.779C33.9663 107.925 34.409 108.092 34.8932 108.273Z" fill="white"/>
<path d="M34.8932 110.117V113.143H33.5098V109.915L34.8932 110.117Z" fill="white"/>
<path d="M29.3056 93.9124C30.1979 92.6948 30.7997 91.2824 30.5092 91.0668C30.2187 90.8511 28.8006 91.352 27.9083 92.5696C27.016 93.7872 26.8776 95.5127 27.1682 95.7284C27.4587 95.944 28.4202 95.1509 29.3056 93.9124Z" fill="white"/>
<path d="M73.6323 93.9124C72.74 92.6948 72.1451 91.2824 72.4357 91.0668C72.7262 90.8511 74.1442 91.352 75.0365 92.5696C75.9289 93.7872 76.0465 95.5475 75.7283 95.7631C75.4101 95.9788 74.5385 95.123 73.6323 93.9124Z" fill="white"/>
<path d="M27.5215 94.1977C27.0719 93.0149 28.0195 90.6214 29.7212 91.1641C31.1046 91.5955 32.91 93.0357 32.7855 93.4114C32.661 93.7872 30.8971 93.3767 30.8556 93.4741C30.8141 93.5715 32.3843 94.5525 32.1491 94.8656C31.9139 95.1787 30.4337 94.5038 30.3714 94.629C30.3091 94.7543 31.3121 95.791 31.0631 96.0623C30.8141 96.3336 27.978 95.3596 27.5215 94.1977Z" fill="#6D4BBF" stroke="white" stroke-width="0.5" stroke-miterlimit="10"/>
<path d="M30.5161 91.1293C30.5161 91.1293 29.1741 90.9484 28.1158 92.7713C27.5082 93.6522 27.2156 94.7142 27.2857 95.784L25.2728 96.0901C25.2513 96.0942 25.2292 96.0928 25.2084 96.086C25.1876 96.0793 25.1687 96.0675 25.1536 96.0516C25.1385 96.0357 25.1276 96.0163 25.1218 95.995C25.1161 95.9738 25.1157 95.9515 25.1206 95.9301C25.3598 94.5599 25.8275 93.2402 26.5041 92.0269C27.171 91.1071 28.1597 90.4756 29.271 90.2596C29.3446 90.2433 29.4209 90.2442 29.494 90.2623C29.5672 90.2804 29.6353 90.3152 29.6929 90.364L30.5161 91.1293Z" fill="white"/>
<path d="M75.4303 94.1977C75.873 93.0149 74.9253 90.6214 73.2306 91.1641C71.8471 91.5955 70.0418 93.0357 70.1663 93.4114C70.2908 93.7872 72.0477 93.3767 72.0962 93.4741C72.1446 93.5715 70.5605 94.5525 70.7957 94.8656C71.0309 95.1787 72.5112 94.5038 72.5804 94.629C72.6495 94.7543 71.6327 95.791 71.8887 96.0623C72.1446 96.3336 75.0152 95.3596 75.4303 94.1977Z" fill="#6D4BBF" stroke="white" stroke-width="0.5" stroke-miterlimit="10"/>
<path d="M72.4258 91.1294C72.4258 91.1294 73.7746 90.9485 74.833 92.7714C75.4412 93.6648 75.7313 94.7387 75.6561 95.8189L77.6621 96.125C77.6841 96.1304 77.7071 96.1301 77.7289 96.124C77.7507 96.1179 77.7705 96.1062 77.7866 96.0901C77.8026 96.074 77.8142 96.054 77.8202 96.0321C77.8263 96.0102 77.8266 95.9871 77.8212 95.965C77.5787 94.5956 77.1112 93.2765 76.4378 92.0617C75.7703 91.1424 74.7819 90.5111 73.6709 90.2945C73.5984 90.2782 73.5231 90.2792 73.4511 90.2973C73.379 90.3154 73.3122 90.3502 73.2558 90.3989L72.4258 91.1294Z" fill="white"/>
</svg>
